<svg xmlns="http://www.w3.org/2000/svg" viewBox="0 0 500 500"><rect width="98" height="110" x="126" y="332" fill="#74c0bd" rx="16" ry="16"/><rect width="98" height="110" x="251" y="58" fill="#297f7b" rx="16" ry="16"/><rect width="98" height="110" x="126" y="58" fill="#297f7b" rx="16" ry="16"/><rect width="98" height="110" x="126" y="195" fill="#549f9b" rx="16" ry="16"/><rect width="98" height="110" x="1" y="195" fill="#549f9b" rx="16" ry="16"/><path fill="#da3253" d="m341.73 195-58.5.11c-8.42.02-16.05 3.47-21.58 9.05-5.72 5.39-9.34 12.89-9.5 21.24l-1.13 57.99c-.16 8.02 2.96 15.76 8.66 21.5l15.6 15.74 113.83 114.84c8.46 8.51 22.39 8.73 31.12.48l72.42-70.55c8.47-8.51 8.49-22.32.05-30.85L378.87 219.7l-15.6-15.74c-5.69-5.75-13.44-8.97-21.53-8.96Zm-34.72 54.94c-5.48 5.52-14.35 5.51-19.82 0-5.47-5.52-5.47-14.47.01-19.98 5.48-5.52 14.35-5.51 19.82 0 5.47 5.52 5.47 14.47-.01 19.98Z"/></svg>